# xmcd CD database file
#
# Track frame offsets:
#	150
#	33785
#	75299
#	115197
#	148282
#	181214
#	224121
#
# Disc length: 3408 seconds
#
# Revision: 0
# Processed by: cddbd v1.5.2PL0 Copyright (c) Steve Scherf et al.
# Submitted via: CDex 1.70beta2
#
DISCID=5d0d4e07
DTITLE=Barbara Markay - Shambhala Dance
DYEAR=2004
DGENRE=New Age
TTITLE0=Atlantis
TTITLE1=Metamorphosis
TTITLE2=Message From Morpheus
TTITLE3=Your Fire
TTITLE4=Common Ground
TTITLE5=Deep
TTITLE6=The Gayatri
EXTD=YEAR: 2004
EXTT0=
EXTT1=
EXTT2=
EXTT3=
EXTT4=
EXTT5=
EXTT6=
PLAYORDER=
